<?xml version="1.0" standalone="no"?>
<!DOCTYPE svg PUBLIC "-//W3C//DTD SVG 20010904//EN"
 "http://www.w3.org/TR/2001/REC-SVG-20010904/DTD/svg10.dtd">
<svg version="1.0" xmlns="http://www.w3.org/2000/svg"
 width="1920.000000pt" height="1920.000000pt" viewBox="0 0 1920.000000 1920.000000"
 preserveAspectRatio="xMidYMid meet">
<metadata>
Created by potrace 1.14, written by Peter Selinger 2001-2017
</metadata>
<g transform="translate(0.000000,1920.000000) scale(0.100000,-0.100000)"
fill="#000000" stroke="none">
<path d="M10729 19196 c-2 -2 -33 -6 -69 -10 -66 -6 -112 -13 -140 -21 -8 -2
-31 -7 -50 -10 -124 -21 -342 -96 -507 -175 -111 -53 -267 -138 -298 -162 -5
-5 -41 -29 -80 -54 -84 -55 -229 -164 -233 -176 -2 -4 -10 -8 -18 -8 -8 0 -14
-3 -14 -7 0 -5 -28 -30 -61 -58 -124 -100 -427 -395 -564 -550 -33 -37 -69
-77 -80 -89 -11 -11 -56 -64 -100 -116 -44 -52 -84 -100 -90 -106 -5 -6 -23
-28 -40 -49 -16 -21 -35 -43 -40 -49 -8 -9 -151 -184 -235 -289 -8 -11 -20
-24 -25 -31 -6 -6 -60 -72 -120 -146 -60 -74 -112 -137 -115 -140 -4 -5 -70
-86 -95 -118 -5 -7 -17 -21 -25 -30 -9 -10 -42 -51 -75 -92 -33 -41 -66 -81
-73 -88 -7 -8 -25 -30 -40 -50 -15 -21 -31 -42 -37 -48 -5 -6 -26 -30 -45 -54
-19 -24 -40 -48 -45 -54 -6 -6 -26 -31 -45 -56 -19 -25 -42 -52 -52 -61 -10
-9 -18 -21 -18 -27 0 -6 -3 -12 -7 -14 -5 -1 -28 -28 -53 -58 -24 -30 -52 -64
-62 -75 -10 -11 -52 -63 -94 -115 -100 -124 -128 -159 -194 -239 -98 -119
-111 -135 -138 -170 -15 -19 -34 -42 -42 -50 -13 -14 -31 -37 -95 -119 -5 -7
-17 -21 -25 -30 -9 -9 -36 -42 -60 -72 -24 -30 -52 -63 -62 -73 -10 -10 -18
-21 -18 -25 0 -4 -18 -27 -40 -52 -22 -25 -43 -49 -47 -55 -5 -5 -31 -37 -58
-71 -28 -34 -62 -76 -77 -95 -14 -19 -35 -44 -45 -56 -28 -33 -42 -50 -133
-163 -111 -138 -113 -140 -125 -154 -6 -6 -28 -33 -50 -61 -22 -27 -42 -52
-46 -55 -3 -3 -32 -39 -64 -80 -33 -41 -62 -77 -65 -80 -11 -10 -175 -214
-191 -237 -8 -13 -19 -20 -22 -16 -4 3 -7 -1 -7 -10 0 -9 -4 -17 -10 -17 -5 0
-10 -7 -10 -15 0 -8 -4 -15 -8 -15 -4 0 -24 -21 -44 -47 -20 -27 -49 -62 -65
-80 -15 -17 -35 -41 -43 -53 -8 -12 -24 -32 -35 -44 -11 -12 -33 -39 -50 -60
-16 -22 -34 -44 -40 -50 -5 -6 -28 -34 -50 -61 -21 -28 -42 -52 -45 -55 -4 -4
-90 -110 -190 -234 -8 -10 -22 -26 -30 -35 -8 -9 -28 -34 -45 -56 -16 -22 -36
-47 -45 -56 -8 -9 -26 -31 -40 -49 -14 -17 -30 -37 -35 -44 -6 -6 -71 -85
-145 -176 -74 -91 -138 -166 -142 -168 -4 -2 -8 -10 -8 -18 0 -8 -4 -14 -8
-14 -4 0 -26 -23 -47 -52 -22 -29 -50 -62 -62 -75 -13 -12 -23 -26 -23 -32 0
-5 -4 -11 -8 -13 -4 -2 -46 -50 -92 -108 -47 -58 -87 -107 -90 -110 -3 -3 -46
-54 -95 -115 -49 -60 -92 -112 -95 -115 -4 -3 -11 -12 -16 -22 -5 -9 -26 -35
-47 -57 -21 -23 -35 -41 -32 -41 3 0 -3 -8 -13 -18 -9 -9 -35 -40 -57 -67 -22
-28 -44 -55 -50 -61 -5 -6 -22 -26 -37 -45 -14 -19 -35 -44 -45 -56 -11 -12
-28 -34 -39 -48 -10 -15 -28 -37 -39 -49 -11 -12 -36 -42 -55 -66 -19 -24 -51
-62 -70 -85 -19 -23 -55 -67 -80 -99 -25 -32 -55 -70 -68 -84 -13 -15 -39 -48
-59 -74 -21 -27 -41 -48 -45 -48 -4 0 -8 -5 -8 -11 0 -7 -8 -19 -18 -28 -9 -9
-29 -32 -44 -53 -15 -20 -33 -42 -40 -50 -7 -7 -31 -36 -53 -63 -21 -28 -42
-52 -45 -55 -3 -3 -32 -39 -65 -80 -33 -41 -62 -77 -65 -80 -3 -3 -23 -27 -45
-55 -21 -27 -42 -52 -45 -55 -3 -3 -45 -54 -94 -115 -48 -60 -103 -128 -122
-150 -18 -22 -99 -121 -179 -220 -81 -99 -154 -189 -163 -200 -10 -11 -37 -46
-62 -77 -25 -32 -48 -58 -52 -58 -5 0 -8 -4 -8 -9 0 -6 -11 -22 -25 -37 -27
-29 -234 -294 -304 -388 -24 -33 -48 -65 -52 -70 -5 -6 -20 -25 -34 -42 -14
-18 -25 -37 -25 -43 0 -6 -3 -11 -7 -11 -5 0 -26 -27 -48 -60 -22 -33 -43 -60
-47 -60 -5 0 -8 -5 -8 -11 0 -6 -26 -47 -58 -92 -32 -45 -61 -89 -65 -97 -4
-8 -34 -55 -67 -105 -141 -215 -309 -518 -423 -765 -81 -176 -171 -413 -164
-431 1 -3 -3 -12 -9 -20 -6 -8 -23 -61 -39 -119 -15 -58 -30 -112 -33 -120 -7
-21 -7 -19 -17 -75 -9 -54 -11 -64 -15 -67 -1 -2 -3 -12 -4 -23 -2 -11 -6 -39
-10 -62 -4 -24 -8 -46 -8 -50 0 -5 -4 -18 -9 -31 -5 -12 -11 -35 -14 -50 -3
-15 -10 -54 -16 -87 -6 -33 -13 -69 -14 -80 -2 -11 -6 -33 -9 -50 -7 -44 -17
-116 -21 -150 -1 -16 -7 -66 -11 -110 -15 -144 -8 -606 10 -702 3 -11 7 -44
11 -73 4 -29 9 -62 11 -74 2 -12 7 -37 10 -56 3 -19 7 -43 10 -52 3 -9 7 -25
9 -35 3 -15 30 -126 39 -158 1 -5 10 -37 20 -70 10 -33 19 -64 21 -70 1 -5 5
-17 8 -25 4 -8 20 -51 36 -95 51 -141 155 -369 183 -402 6 -7 7 -13 2 -13 -5
0 -4 -4 1 -8 6 -4 16 -18 23 -32 6 -14 16 -32 22 -40 5 -8 28 -46 51 -85 38
-63 123 -196 141 -220 4 -5 38 -50 74 -100 60 -81 125 -163 172 -220 48 -58
129 -152 142 -165 8 -9 51 -56 95 -104 95 -105 509 -522 580 -586 28 -25 84
-74 124 -110 41 -36 80 -70 86 -77 7 -7 15 -9 19 -6 3 4 6 2 6 -4 0 -9 30 -36
149 -131 19 -15 40 -33 47 -40 7 -6 15 -12 19 -12 3 0 17 -10 30 -23 28 -26
36 -33 90 -72 22 -17 44 -33 50 -38 5 -4 28 -21 50 -37 22 -16 45 -33 50 -38
6 -4 26 -18 45 -32 19 -13 37 -27 40 -30 3 -3 23 -17 45 -32 22 -15 63 -43 90
-62 28 -20 95 -66 150 -103 55 -36 102 -69 105 -72 3 -3 14 -11 25 -18 11 -6
57 -36 103 -65 144 -93 243 -154 392 -244 284 -171 339 -204 346 -204 4 0 15
-6 23 -14 16 -13 84 -52 201 -114 36 -19 70 -38 75 -42 6 -4 42 -25 80 -46 39
-21 88 -48 110 -60 22 -12 81 -43 130 -69 50 -26 115 -61 145 -78 30 -17 82
-44 115 -61 33 -17 62 -34 63 -38 2 -4 11 -8 21 -8 9 0 21 -4 27 -9 12 -11
176 -96 689 -356 226 -114 496 -251 600 -305 105 -53 228 -114 275 -134 47
-21 94 -41 105 -46 77 -35 343 -125 415 -141 25 -5 52 -12 60 -16 17 -7 23 -9
60 -17 14 -3 34 -7 45 -9 68 -16 184 -39 210 -43 39 -5 93 -13 130 -20 35 -6
82 -11 185 -21 105 -10 557 -10 660 0 189 19 239 25 344 46 28 6 65 13 81 16
60 12 81 16 140 32 33 8 69 17 81 19 12 2 40 10 63 18 22 9 41 13 41 11 0 -2
20 4 45 15 25 11 45 18 45 16 0 -3 24 5 53 15 28 11 72 27 97 36 25 8 92 35
150 59 58 24 109 44 114 43 5 0 12 3 15 8 3 4 49 29 101 55 86 42 164 84 275
147 144 82 465 308 549 386 6 6 20 17 32 25 77 53 476 442 591 575 57 66 204
244 243 295 14 18 30 37 35 44 6 6 26 31 45 56 19 25 37 47 40 50 4 3 31 37
60 75 98 127 155 200 165 211 5 6 21 26 35 44 23 30 62 81 145 186 33 42 372
481 408 528 12 16 33 44 47 61 14 18 32 43 40 55 8 13 22 30 31 39 13 14 78
98 154 200 99 134 280 367 287 369 4 2 8 8 8 13 0 9 54 85 71 99 3 3 25 32 49
65 24 33 50 66 57 73 7 7 20 26 30 42 9 17 21 30 25 30 4 0 8 6 8 13 0 7 9 19
20 27 11 8 20 18 20 23 0 5 12 24 28 42 15 18 36 45 47 60 11 16 26 34 33 41
6 7 12 17 12 22 0 6 4 12 8 14 7 3 82 98 107 136 6 8 16 22 23 31 8 9 39 50
70 91 31 41 59 77 62 80 3 3 10 13 15 22 9 15 229 307 262 348 7 8 84 112 172
230 88 118 164 220 169 225 4 6 19 25 32 44 14 19 32 44 42 55 57 71 418 559
418 566 0 4 7 10 15 14 8 3 15 12 15 20 0 8 4 16 8 18 5 2 62 75 128 163 65
88 123 165 127 170 8 9 219 293 255 343 9 13 25 33 35 45 10 12 27 36 38 54
11 18 25 33 30 33 5 0 9 5 9 11 0 11 60 92 73 97 4 2 7 10 7 17 0 7 4 15 8 17
4 1 36 41 70 88 35 47 68 92 75 100 7 8 37 49 67 90 30 41 60 82 67 90 6 8 40
53 75 100 34 47 66 90 71 95 4 6 32 44 63 85 30 41 60 82 67 90 7 8 30 40 51
70 22 30 48 63 58 73 10 10 18 21 18 25 0 6 16 27 60 79 5 7 10 16 10 22 0 5
3 11 7 13 5 2 21 21 38 43 16 22 33 45 38 50 8 10 191 257 225 303 26 36 101
135 117 155 8 9 15 20 15 23 0 3 6 12 13 19 19 22 28 34 95 125 34 47 71 96
82 110 11 14 45 59 75 100 30 41 63 85 72 96 10 12 26 32 35 45 48 67 219 296
231 309 7 8 81 105 163 215 82 110 152 202 156 203 5 2 8 10 8 18 0 8 5 14 10
14 6 0 10 6 10 14 0 8 4 16 8 18 20 7 322 475 322 497 0 5 3 11 8 13 4 2 20
28 36 58 16 30 38 67 48 83 11 15 17 27 14 27 -2 0 14 33 36 73 22 39 41 77
42 82 2 6 17 42 35 80 30 63 51 111 56 125 1 3 7 16 12 30 26 61 83 214 103
276 24 75 60 200 65 224 2 8 4 15 5 15 1 0 3 8 5 19 2 10 9 39 15 65 29 125
47 223 65 366 14 113 19 229 19 425 0 220 -6 319 -28 468 -2 15 -7 47 -10 72
-3 25 -8 56 -11 70 -6 28 -13 63 -20 100 -3 14 -7 36 -10 50 -3 14 -8 34 -10
45 -11 49 -15 65 -40 150 -14 50 -27 97 -29 106 -10 39 -57 183 -64 193 -3 6
-7 16 -8 23 -2 13 -60 167 -74 198 -8 17 -30 69 -35 85 -32 92 -295 600 -333
643 -8 9 -12 17 -7 17 4 0 -4 15 -19 34 -14 19 -26 37 -26 41 0 3 -8 18 -19
33 -10 15 -42 65 -72 112 -30 47 -57 87 -61 88 -5 2 -8 8 -8 13 0 12 -69 109
-92 130 -10 9 -18 21 -18 28 0 6 -4 11 -10 11 -5 0 -10 6 -10 14 0 8 -3 16 -7
18 -5 2 -42 48 -83 103 -87 115 -234 279 -345 386 -43 41 -96 91 -118 112 -21
20 -42 37 -47 37 -5 0 -10 4 -12 9 -3 8 -129 91 -158 104 -8 4 -32 17 -52 29
-20 13 -108 66 -195 118 -87 52 -173 104 -191 117 -18 12 -46 28 -62 35 -17 7
-30 16 -30 20 0 5 -5 8 -11 8 -6 0 -23 8 -37 19 -15 10 -49 30 -75 45 -26 14
-53 31 -60 36 -10 9 -166 103 -282 170 -16 9 -124 75 -240 145 -115 70 -227
137 -249 148 -52 29 -66 38 -104 65 -17 13 -32 20 -32 16 0 -4 -8 0 -17 8 -16
13 -110 72 -166 103 -10 6 -105 63 -212 128 -107 64 -199 117 -205 117 -5 0
-10 5 -10 10 0 6 -11 15 -25 20 -14 5 -50 26 -80 45 -31 19 -59 35 -64 35 -5
0 -11 3 -13 8 -1 4 -23 18 -48 32 -25 13 -49 28 -55 33 -5 4 -113 70 -240 145
-126 75 -236 142 -243 149 -7 7 -20 13 -28 13 -8 0 -14 5 -14 10 0 6 -5 10
-11 10 -7 0 -40 18 -75 40 -35 22 -66 40 -69 40 -3 0 -11 5 -18 11 -7 5 -72
45 -145 88 -73 44 -138 83 -145 88 -6 6 -32 21 -57 34 -25 13 -58 33 -75 44
-16 11 -39 25 -50 32 -11 6 -72 42 -135 79 -63 37 -117 70 -120 73 -9 10 -64
42 -82 48 -10 3 -18 9 -18 14 0 5 -4 9 -10 9 -5 0 -44 21 -87 48 -43 26 -85
52 -95 57 -9 6 -58 35 -108 65 -51 30 -109 65 -129 78 -20 13 -44 25 -53 29
-10 3 -18 9 -18 14 0 5 -4 9 -10 9 -5 0 -33 15 -62 34 -131 83 -509 272 -562
280 -6 1 -16 4 -21 8 -21 13 -159 58 -163 53 -3 -3 -14 2 -24 12 -10 9 -18 13
-18 10 0 -3 -30 3 -67 14 -38 11 -84 22 -103 25 -19 3 -43 7 -52 10 -10 3 -28
7 -40 9 -13 2 -41 7 -63 10 -22 4 -56 9 -75 12 -44 5 -426 14 -431 9z"/>
</g>
</svg>
